<mxfile host="65bd71144e">
    <diagram id="mawhf7Y_9E3B3qJD4FqS" name="第 1 页">
        <mxGraphModel dx="735" dy="370" grid="1" gridSize="10" guides="1" tooltips="1" connect="1" arrows="1" fold="1" page="1" pageScale="1" pageWidth="827" pageHeight="1169" math="0" shadow="0">
            <root>
                <mxCell id="0"/>
                <mxCell id="1" parent="0"/>
                <mxCell id="2" value="网卡" style="rounded=0;whiteSpace=wrap;html=1;" vertex="1" parent="1">
                    <mxGeometry x="270" y="180" width="120" height="60" as="geometry"/>
                </mxCell>
                <mxCell id="3" value="cpu" style="rounded=0;whiteSpace=wrap;html=1;" vertex="1" parent="1">
                    <mxGeometry x="480" y="180" width="120" height="60" as="geometry"/>
                </mxCell>
                <mxCell id="4" value="内存" style="rounded=0;whiteSpace=wrap;html=1;" vertex="1" parent="1">
                    <mxGeometry x="220" y="310" width="400" height="60" as="geometry"/>
                </mxCell>
                <mxCell id="7" value="" style="rounded=1;whiteSpace=wrap;html=1;" vertex="1" parent="1">
                    <mxGeometry x="320" y="330" width="70" height="20" as="geometry"/>
                </mxCell>
                <mxCell id="9hfZgDmZ-etRRiPk16lo-7" value="sk_buff" style="rounded=1;whiteSpace=wrap;html=1;" vertex="1" parent="1">
                    <mxGeometry x="320" y="220" width="70" height="20" as="geometry"/>
                </mxCell>
                <mxCell id="9hfZgDmZ-etRRiPk16lo-8" value="" style="endArrow=classic;startArrow=classic;html=1;exitX=0.5;exitY=0;exitDx=0;exitDy=0;entryX=0.5;entryY=1;entryDx=0;entryDy=0;" edge="1" parent="1" source="7" target="9hfZgDmZ-etRRiPk16lo-7">
                    <mxGeometry width="50" height="50" relative="1" as="geometry">
                        <mxPoint x="450" y="310" as="sourcePoint"/>
                        <mxPoint x="500" y="260" as="targetPoint"/>
                    </mxGeometry>
                </mxCell>
                <mxCell id="9hfZgDmZ-etRRiPk16lo-9" value="内存映射" style="edgeLabel;html=1;align=center;verticalAlign=middle;resizable=0;points=[];" vertex="1" connectable="0" parent="9hfZgDmZ-etRRiPk16lo-8">
                    <mxGeometry x="0.1897" y="1" relative="1" as="geometry">
                        <mxPoint as="offset"/>
                    </mxGeometry>
                </mxCell>
                <mxCell id="9hfZgDmZ-etRRiPk16lo-10" style="edgeStyle=none;html=1;exitX=0.5;exitY=1;exitDx=0;exitDy=0;entryX=1;entryY=0;entryDx=0;entryDy=0;" edge="1" parent="1" source="3" target="7">
                    <mxGeometry relative="1" as="geometry"/>
                </mxCell>
                <mxCell id="9hfZgDmZ-etRRiPk16lo-11" value="poll epoll slect" style="edgeLabel;html=1;align=center;verticalAlign=middle;resizable=0;points=[];" vertex="1" connectable="0" parent="9hfZgDmZ-etRRiPk16lo-10">
                    <mxGeometry x="-0.5644" y="-1" relative="1" as="geometry">
                        <mxPoint as="offset"/>
                    </mxGeometry>
                </mxCell>
                <mxCell id="9hfZgDmZ-etRRiPk16lo-12" value="" style="endArrow=classic;html=1;entryX=0;entryY=0.5;entryDx=0;entryDy=0;" edge="1" parent="1" target="2">
                    <mxGeometry width="50" height="50" relative="1" as="geometry">
                        <mxPoint x="110" y="210" as="sourcePoint"/>
                        <mxPoint x="130" y="200" as="targetPoint"/>
                    </mxGeometry>
                </mxCell>
                <mxCell id="9hfZgDmZ-etRRiPk16lo-13" value="外部数据" style="text;html=1;strokeColor=none;fillColor=none;align=center;verticalAlign=middle;whiteSpace=wrap;rounded=0;" vertex="1" parent="1">
                    <mxGeometry x="160" y="200" width="60" height="10" as="geometry"/>
                </mxCell>
            </root>
        </mxGraphModel>
    </diagram>
    <diagram id="vTCYDGK0-ALiu-wDD3kC" name="第 2 页">
        <mxGraphModel dx="296" dy="149" grid="1" gridSize="10" guides="1" tooltips="1" connect="1" arrows="1" fold="1" page="1" pageScale="1" pageWidth="827" pageHeight="1169" math="0" shadow="0">
            <root>
                <mxCell id="0"/>
                <mxCell id="1" parent="0"/>
                <mxCell id="vdDMooU_X9HiE6Aab6IX-5" style="edgeStyle=none;html=1;exitX=1;exitY=0.25;exitDx=0;exitDy=0;entryX=0;entryY=0.25;entryDx=0;entryDy=0;" edge="1" parent="1" source="vdDMooU_X9HiE6Aab6IX-1" target="vdDMooU_X9HiE6Aab6IX-2">
                    <mxGeometry relative="1" as="geometry"/>
                </mxCell>
                <mxCell id="vdDMooU_X9HiE6Aab6IX-1" value="网卡" style="rounded=0;whiteSpace=wrap;html=1;" vertex="1" parent="1">
                    <mxGeometry x="50" y="60" width="50" height="30" as="geometry"/>
                </mxCell>
                <mxCell id="vdDMooU_X9HiE6Aab6IX-6" style="edgeStyle=none;html=1;exitX=0;exitY=0.75;exitDx=0;exitDy=0;entryX=1;entryY=0.75;entryDx=0;entryDy=0;" edge="1" parent="1" source="vdDMooU_X9HiE6Aab6IX-2" target="vdDMooU_X9HiE6Aab6IX-1">
                    <mxGeometry relative="1" as="geometry"/>
                </mxCell>
                <mxCell id="vdDMooU_X9HiE6Aab6IX-7" style="edgeStyle=none;html=1;exitX=1;exitY=0.25;exitDx=0;exitDy=0;entryX=0;entryY=0.25;entryDx=0;entryDy=0;" edge="1" parent="1" source="vdDMooU_X9HiE6Aab6IX-2" target="vdDMooU_X9HiE6Aab6IX-3">
                    <mxGeometry relative="1" as="geometry"/>
                </mxCell>
                <mxCell id="otb63kzJL4LhKWpHLnsc-4" value="receive" style="edgeLabel;html=1;align=center;verticalAlign=middle;resizable=0;points=[];" vertex="1" connectable="0" parent="vdDMooU_X9HiE6Aab6IX-7">
                    <mxGeometry x="0.1448" y="1" relative="1" as="geometry">
                        <mxPoint as="offset"/>
                    </mxGeometry>
                </mxCell>
                <mxCell id="vdDMooU_X9HiE6Aab6IX-2" value="协议栈" style="rounded=0;whiteSpace=wrap;html=1;" vertex="1" parent="1">
                    <mxGeometry x="180" y="60" width="50" height="30" as="geometry"/>
                </mxCell>
                <mxCell id="vdDMooU_X9HiE6Aab6IX-8" style="edgeStyle=none;html=1;exitX=0;exitY=0.75;exitDx=0;exitDy=0;entryX=1;entryY=0.75;entryDx=0;entryDy=0;" edge="1" parent="1" source="vdDMooU_X9HiE6Aab6IX-3" target="vdDMooU_X9HiE6Aab6IX-2">
                    <mxGeometry relative="1" as="geometry"/>
                </mxCell>
                <mxCell id="otb63kzJL4LhKWpHLnsc-3" value="send" style="edgeLabel;html=1;align=center;verticalAlign=middle;resizable=0;points=[];" vertex="1" connectable="0" parent="vdDMooU_X9HiE6Aab6IX-8">
                    <mxGeometry x="-0.1289" relative="1" as="geometry">
                        <mxPoint as="offset"/>
                    </mxGeometry>
                </mxCell>
                <mxCell id="vdDMooU_X9HiE6Aab6IX-3" value="应用程序" style="rounded=0;whiteSpace=wrap;html=1;" vertex="1" parent="1">
                    <mxGeometry x="300" y="60" width="50" height="30" as="geometry"/>
                </mxCell>
                <mxCell id="vdDMooU_X9HiE6Aab6IX-4" value="sk_buff" style="text;html=1;strokeColor=none;fillColor=none;align=center;verticalAlign=middle;whiteSpace=wrap;rounded=0;" vertex="1" parent="1">
                    <mxGeometry x="60" y="110" width="60" height="30" as="geometry"/>
                </mxCell>
                <mxCell id="otb63kzJL4LhKWpHLnsc-1" value="发送缓冲区&lt;br&gt;" style="text;html=1;strokeColor=none;fillColor=none;align=center;verticalAlign=middle;whiteSpace=wrap;rounded=0;" vertex="1" parent="1">
                    <mxGeometry x="190" y="90" width="70" height="20" as="geometry"/>
                </mxCell>
                <mxCell id="otb63kzJL4LhKWpHLnsc-2" value="接收缓冲区" style="text;html=1;strokeColor=none;fillColor=none;align=center;verticalAlign=middle;whiteSpace=wrap;rounded=0;" vertex="1" parent="1">
                    <mxGeometry x="190" y="110" width="70" height="20" as="geometry"/>
                </mxCell>
            </root>
        </mxGraphModel>
    </diagram>
</mxfile>